inDegrees=yes
name=ik_MT_01200627-Y006-000_orientations_updatedTime
DataType=double
version=3
OpenSimVersion=4.5-2024-07-10-f38669b70
endheader
time	pelvis_tilt	pelvis_list	pelvis_rotation	pelvis_tx	pelvis_ty	pelvis_tz	hip_flexion_r	hip_adduction_r	hip_rotation_r	knee_angle_r	knee_angle_r_beta	ankle_angle_r	subtalar_angle_r	mtp_angle_r	hip_flexion_l	hip_adduction_l	hip_rotation_l	knee_angle_l	knee_angle_l_beta	ankle_angle_l	subtalar_angle_l	mtp_angle_l	lumbar_extension	lumbar_bending	lumbar_rotation	arm_flex_r	arm_add_r	arm_rot_r	elbow_flex_r	pro_sup_r	wrist_flex_r	wrist_dev_r	arm_flex_l	arm_add_l	arm_rot_l	elbow_flex_l	pro_sup_l	wrist_flex_l	wrist_dev_l
1748433514.125953	0.8184374687843592	-0.04965361209435653	-166.8497799131349	0	0.9399999943917833	0	79.99999999525214	-7.000000001125469	0	79.99999999792263	1.396263401559207	0	0	0	79.99999999525214	-7.000000004501878	0	79.99999999802388	1.396263401560974	0	0	0	-22.20846366697073	0.2606012084284293	-2.340878322298065	-36.56034245212639	-27.38310059355265	33.95317883501973	0.03428140493666216	89.98516281745476	-32.40907954077812	-24.98023005174547	-34.62505857997863	-6.363996986385706	19.24220470452028	7.121608366826242	66.78737236498471	6.069952955031378	-10.8096879634269
1748433514.135953	0.7889338637393203	-0.06038172634410396	-166.8510499166704	0	0.9399999943917833	0	79.99999999525214	-7.000000001125469	0	79.99999999792263	1.396263401559207	0	0	0	79.99999999525214	-7.000000004501878	0	79.99999999802388	1.396263401560974	0	0	0	-22.45675511279519	0.2045614680084988	-2.369965237141032	-37.67052179941405	-27.39350870668485	33.53381464973012	0.03419104879488378	89.98533655479454	-32.11877064439214	-24.98002725068066	-35.61566419385927	-6.08081218052403	18.89430626353147	6.98074286533457	66.71598089388208	6.235038219915706	-10.34158287133629
1748433514.145953	0.752094207003287	-0.07546908866546782	-166.8533166842587	0	0.9399999943917833	0	79.99999999525214	-7.000000001125469	0	79.99999999792263	1.396263401559207	0	0	0	79.99999999525214	-7.000000004501878	0	79.99999999802388	1.396263401560974	0	0	0	-22.74220994776789	0.1384396838208265	-2.380281317762971	-38.71953152439222	-27.36836375846798	33.1036435436647	0.03408065914997842	89.98550442501093	-31.82543195974175	-24.97980890619523	-36.54438729710445	-5.842034748526461	18.5265087944641	6.877230081079061	66.67732090430498	6.447074473988669	-9.834068842528243
1748433514.155953	0.7249476994647499	-0.06669947045315887	-166.8453469432768	0	0.9399999943917833	0	79.99999999525214	-7.000000001125469	0	79.99999999792263	1.396263401559207	0	0	0	79.99999999525214	-7.000000004501878	0	79.99999999802388	1.396263401560974	0	0	0	-23.04105527215171	0.08091812524686615	-2.409120306759405	-39.66967553893906	-27.32172242011529	32.69667894781163	0.03406780746793875	89.98567246992134	-31.57205834339297	-24.97962932585836	-37.41057992927633	-5.607982956618057	18.10963649053265	6.788367227610381	66.71492473310467	6.651966769094097	-9.30371202139585
1748433514.165953	0.6610571225214753	-0.1075673854583186	-166.8474479743023	0	0.9399999943917833	0	79.99999999525214	-7.000000001125469	0	79.99999999792263	1.396263401559207	0	0	0	79.99999999525214	-7.000000004501878	0	79.99999999802388	1.396263401560974	0	0	0	-23.38097963195579	0.008105137655550036	-2.459327533598897	-40.5734781030419	-27.30688556891755	32.2947667027742	0.03394715250254694	89.98584978173378	-31.31260810114358	-24.97948354618445	-38.22691491214782	-5.383887914459038	17.70954917122269	6.704723105142044	66.8378780429717	6.939055161595831	-8.782903273322633
1748433514.175953	0.6222078537623624	-0.1114079968665843	-166.8527448218457	0	0.9399999943917833	0	79.99999999525214	-7.000000001125469	0	79.99999999792263	1.396263401559207	0	0	0	79.99999999525214	-7.000000004501878	0	79.99999999802388	1.396263401560974	0	0	0	-23.62939237624194	-0.04908426201910929	-2.46834867613379	-41.48896760999778	-27.24526916126049	31.86258821385197	0.03391724441900065	89.98601824291143	-31.08157621449341	-24.97938638245312	-39.07027441122479	-5.215277474128035	17.37500864972061	6.664720825090211	67.01370329251246	7.21081923082026	-8.24766491031072
1748433514.185953	0.555957542573035	-0.1389720870152875	-166.8526044774991	0	0.9399999943917833	0	79.99999999525214	-7.000000001125469	0	79.99999999792263	1.396263401559207	0	0	0	79.99999999525214	-7.000000004501878	0	79.99999999802388	1.396263401560974	0	0	0	-23.98438713817413	-0.1199709600135234	-2.522856902484474	-42.23569128305122	-27.19997822788275	31.46127829547323	0.03393023820055348	89.98619448633364	-30.83220556650258	-24.97925679031922	-39.7715168479863	-5.053600066471674	17.10474289477965	6.581823679329051	67.1701126549231	7.535870439135653	-7.747129457923426
1748433514.195953	0.5043332790599329	-0.1491453155802705	-166.8456252327311	0	0.9399999943917833	0	79.99999999525214	-7.000000001125469	0	79.99999999792263	1.396263401559207	0	0	0	79.99999999525214	-7.000000004501878	0	79.99999999802388	1.396263401560974	0	0	0	-24.2516756819482	-0.1724186834264468	-2.556722531932572	-43.00441336287624	-27.11851043392824	31.02551797058674	0.03408540928453691	89.986365886725	-30.59280776569285	-24.97918797573682	-40.50926852654261	-4.927910312996476	16.92154889432159	6.537753681550451	67.27057247437499	7.84768196761188	-7.268024762900482
1748433514.205953	0.4481057819482713	-0.1653877301008979	-166.8468010225293	0	0.9399999943917833	0	79.99999999525214	-7.000000001125469	0	79.99999999792263	1.396263401559207	0	0	0	79.99999999525214	-7.000000004501878	0	79.99999999802388	1.396263401560974	0	0	0	-24.52821326724775	-0.2239781539613234	-2.597091777877367	-43.69376379912424	-27.0390013171069	30.60511213517678	0.03437201694975428	89.98652643543657	-30.35710575641953	-24.97918271858908	-41.18538823006399	-4.787489095917664	16.77886406577783	6.4667657735313	67.30538340382277	8.144637876780799	-6.836465634814124
1748433514.215953	0.4037500103951033	-0.1579743339583379	-166.8447815307525	0	0.9399999943917833	0	79.99999999525214	-7.000000001125469	0	79.99999999792263	1.396263401559207	0	0	0	79.99999999525214	-7.000000004501878	0	79.99999999802388	1.396263401560974	0	0	0	-24.78475386688672	-0.2554771851499767	-2.605566576268985	-44.36588702505222	-26.93834308476346	30.16216136092592	0.03463116089198505	89.9866605430179	-30.18195596240968	-24.97918254136882	-41.84759440972253	-4.687325278692433	16.64616877613897	6.448173388210478	67.3297968765761	8.406470926182955	-6.414652645373963
1748433514.225953	0.3445612876321971	-0.1677395037834593	-166.8494204413302	0	0.9399999943917833	0	79.99999999525214	-7.000000001125469	0	79.99999999792263	1.396263401559207	0	0	0	79.99999999525214	-7.000000004501878	0	79.99999999802388	1.396263401560974	0	0	0	-25.08885324312032	-0.3103292843929355	-2.613751110614157	-44.94017157704011	-26.8625308059584	29.76940031103361	0.03491342344824964	89.98676734224973	-29.9928425653073	-24.97917714897614	-42.41140156470682	-4.597530760523644	16.4705524651661	6.393183827265913	67.36037189561738	8.660478323992191	-6.040614102291856
1748433514.235953	0.2762849539343402	-0.1826344914243275	-166.8496958086291	0	0.9399999943917833	0	79.99999999525214	-7.000000001125469	0	79.99999999792263	1.396263401559207	0	0	0	79.99999999525214	-7.000000004501878	0	79.99999999802388	1.396263401560974	0	0	0	-25.38902876051529	-0.3663432071932772	-2.624401068221927	-45.47348364512091	-26.80720066826916	29.40438749425552	0.03526610217134882	89.9868399723337	-29.83202359451097	-24.97920556317823	-42.92564504329315	-4.492882982569426	16.24313597291107	6.314805501835125	67.3953721397054	8.903189711879508	-5.71219745333958
1748433514.245953	0.2334846763251141	-0.1792711315560596	-166.8499195837673	0	0.9399999943917833	0	79.99999999525214	-7.000000001125469	0	79.99999999792263	1.396263401559207	0	0	0	79.99999999525214	-7.000000004501878	0	79.99999999802388	1.396263401560974	0	0	0	-25.61499104072293	-0.403334093040867	-2.628956686785077	-46.02992573927403	-26.76607060283466	29.0441544353384	0.0355916079652638	89.98692018728589	-29.74558559985194	-24.97932629462018	-43.42697960886176	-4.393175619203995	15.99519921838103	6.247770645484318	67.42694928495143	9.12390894257863	-5.400406443837313
